<?xml version="1.0" encoding="UTF-8"?>
<svg width="97px" height="36px" viewBox="0 0 97 36" version="1.1" xmlns="http://www.w3.org/2000/svg" xmlns:xlink="http://www.w3.org/1999/xlink">
    <title>eikon_simple copie</title>
    <g id="Page-1" stroke="none" stroke-width="1" fill="none" fill-rule="evenodd">
        <g id="maquette-v1" transform="translate(-799.000000, -6626.000000)" fill="#E7E7E7">
            <g id="footer" transform="translate(-5.000000, 6386.000000)">
                <g id="logos" transform="translate(372.000000, 209.000000)">
                    <g id="eikon_simple-copie" transform="translate(432.000000, 31.000000)">
                        <g id="Group-3" transform="translate(0.000000, 9.000000)">
                            <path d="M15.1913303,9.01685393 C15.1913303,6.06741573 13.1545039,4.12921348 10.184132,4.12921348 C7.29862796,4.12921348 5.09206602,5.81460674 5.09206602,9.01685393 L15.1913303,9.01685393 Z M10.2689998,0 C15.7005369,0 19.9439252,4.21348315 19.9439252,9.60674157 C19.9439252,10.3651685 19.9439252,11.2921348 19.6893219,12.7247191 L4.92233048,12.7247191 C4.92233048,15.758427 6.44995029,18.2865169 10.3538676,18.2865169 C13.1545039,18.2865169 14.1729171,17.0224719 14.7669914,15.505618 L19.6893219,15.505618 C19.0103798,19.2134831 15.7005369,22.5 10.3538676,22.5 C3.39471068,22.5 0,17.0224719 0,11.2078652 C0,4.80337079 3.73418175,0 10.2689998,0 L10.2689998,0 Z" id="Fill-1"></path>
                        </g>
                        <path d="M24.3535249,30.6 L29.1324564,30.6 L29.1324564,10.2822581 L24.3535249,10.2822581 C24.3535249,10.2822581 24.3535249,30.6 24.3535249,30.6 Z M26.7038191,0 C28.5057113,0 29.9158879,1.3983871 29.9158879,3.20806452 C29.9158879,4.93548387 28.5057113,6.33387097 26.7038191,6.33387097 C24.98027,6.33387097 23.5700935,4.93548387 23.5700935,3.20806452 C23.5700935,1.3983871 24.98027,0 26.7038191,0 L26.7038191,0 Z" id="Fill-4"></path>
                        <polygon id="Fill-6" points="32.635514 30.6 32.635514 0 37.6054503 0 37.6054503 19.2483871 45.523654 10.2 51.6728972 10.2 42.8280953 20.4 51.6728972 30.6 45.523654 30.6 37.6054503 21.633871 37.6054503 30.6"></polygon>
                        <path d="M61.6053016,27.0337079 C65.2446559,27.0337079 67.6972642,23.9157303 67.6972642,20.2078652 C67.6972642,16.5 65.2446559,13.3820225 61.6053016,13.3820225 C57.9659473,13.3820225 55.5924554,16.5 55.5924554,20.2078652 C55.5924554,23.9157303 57.9659473,27.0337079 61.6053016,27.0337079 M61.6053016,9 C68.1719626,9 72.5233645,14.1404494 72.5233645,20.2078652 C72.5233645,26.2752809 68.1719626,31.5 61.6053016,31.5 C55.0386406,31.5 50.7663551,26.3595506 50.7663551,20.2921348 C50.7663551,14.2247191 55.117757,9 61.6053016,9" id="Fill-7"></path>
                        <path d="M75.2429907,31.5 L75.2429907,10.4837838 L80.0430146,10.4837838 L80.0430146,13.4027027 C81.344716,11.0675676 83.7040498,9.9 86.7955907,9.9 C89.8057752,9.9 91.7583273,10.9841699 92.9786724,12.7355212 C94.0363048,14.3200772 94.2803738,16.0714286 94.2803738,18.9903475 L94.2803738,31.5 L89.4803499,31.5 L89.4803499,20.6583012 C89.4803499,17.0722008 88.4227175,14.3200772 85.0057513,14.3200772 C81.6701414,14.3200772 80.0430146,17.0722008 80.0430146,20.6583012 L80.0430146,31.5 L75.2429907,31.5 Z" id="Fill-8"></path>
                        <polygon id="Fill-9" points="41.6335915 34.2 0 34.2 0 36 42.6074766 36"></polygon>
                        <polygon id="Fill-10" points="44.4205607 34.2 45.4095157 36 97 36 97 34.2"></polygon>
                    </g>
                </g>
            </g>
        </g>
    </g>
</svg>