<?xml version="1.0" encoding="utf-8"?>
<!-- Generator: Adobe Illustrator 27.5.0, SVG Export Plug-In . SVG Version: 6.00 Build 0)  -->
<svg version="1.1" id="Calque_1" xmlns="http://www.w3.org/2000/svg" xmlns:xlink="http://www.w3.org/1999/xlink" x="0px" y="0px"
	 viewBox="0 0 119 44" style="enable-background:new 0 0 119 44;" xml:space="preserve">
<style type="text/css">
	.st0{filter:url(#Adobe_OpacityMaskFilter);}
	.st1{fill-rule:evenodd;clip-rule:evenodd;fill:#FFFFFF;}
	.st2{mask:url(#mask-2_00000146461497748729976060000015744205779557794968_);fill-rule:evenodd;clip-rule:evenodd;fill:#5E5E5A;}
	.st3{filter:url(#Adobe_OpacityMaskFilter_00000120529563277100314840000007429829365627693234_);}
	.st4{mask:url(#mask-4_00000062193845609152495900000010527743664733208234_);fill-rule:evenodd;clip-rule:evenodd;fill:#5E5E5A;}
	.st5{filter:url(#Adobe_OpacityMaskFilter_00000111157361841958230780000014335416456642469529_);}
	.st6{mask:url(#mask-4_00000060743462962943423160000007479627806103852714_);fill-rule:evenodd;clip-rule:evenodd;fill:#5E5E5A;}
	.st7{filter:url(#Adobe_OpacityMaskFilter_00000058565250299812415820000016395361430003365764_);}
	.st8{mask:url(#mask-4_00000164486633327727347490000009890868249619386026_);fill-rule:evenodd;clip-rule:evenodd;fill:#5E5E5A;}
	.st9{filter:url(#Adobe_OpacityMaskFilter_00000000200941661512900720000010006788037481203110_);}
	.st10{mask:url(#mask-4_00000136386486546233804330000003607485404836924596_);fill-rule:evenodd;clip-rule:evenodd;fill:#5E5E5A;}
	.st11{filter:url(#Adobe_OpacityMaskFilter_00000156572754504411713090000002195246512998785428_);}
	.st12{mask:url(#mask-4_00000066501845059691633040000000609007528640107152_);fill-rule:evenodd;clip-rule:evenodd;fill:#5E5E5A;}
	.st13{filter:url(#Adobe_OpacityMaskFilter_00000018230239149868622820000009744397973674239137_);}
	.st14{mask:url(#mask-4_00000160184946109667772260000008908399486560354448_);fill-rule:evenodd;clip-rule:evenodd;fill:#5E5E5A;}
</style>
<g id="maquette-v3">
	<g id="Homepage-menu-open" transform="translate(-44.000000, -28.000000)">
		<g id="Logo" transform="translate(44.740741, 28.178082)">
			<g id="Group-3" transform="translate(0.000000, 11.315068)">
				<g id="Clip-2">
				</g>
				<defs>
					<filter id="Adobe_OpacityMaskFilter" filterUnits="userSpaceOnUse" x="0" y="0" width="23.5" height="26.7">
						<feColorMatrix  type="matrix" values="1 0 0 0 0  0 1 0 0 0  0 0 1 0 0  0 0 0 1 0"/>
					</filter>
				</defs>
				
					<mask maskUnits="userSpaceOnUse" x="0" y="0" width="23.5" height="26.7" id="mask-2_00000146461497748729976060000015744205779557794968_">
					<g class="st0">
						<polygon id="path-1_00000029040476772988909790000007268365639239267733_" class="st1" points="0,0 23.4,0 23.4,26.7 0,26.7 
													"/>
					</g>
				</mask>
				<path id="Fill-1" class="st2" d="M17.9,10.7c0-3.5-2.4-5.8-5.9-5.8c-3.4,0-6,2-6,5.8H17.9z M12.1,0c6.4,0,11.4,5,11.4,11.4
					c0,0.9,0,2-0.3,3.7H5.8c0,3.6,1.8,6.6,6.4,6.6c3.3,0,4.5-1.5,5.2-3.3h5.8c-0.8,4.4-4.7,8.3-11,8.3C4,26.7,0,20.2,0,13.3
					C0,5.7,4.4,0,12.1,0L12.1,0z"/>
			</g>
			<g id="Clip-5">
			</g>
			<defs>
				
					<filter id="Adobe_OpacityMaskFilter_00000108997245958849500980000009360292924523010973_" filterUnits="userSpaceOnUse" x="28.3" y="0" width="8.1" height="37.2">
					<feColorMatrix  type="matrix" values="1 0 0 0 0  0 1 0 0 0  0 0 1 0 0  0 0 0 1 0"/>
				</filter>
			</defs>
			
				<mask maskUnits="userSpaceOnUse" x="28.3" y="0" width="8.1" height="37.2" id="mask-4_00000062193845609152495900000010527743664733208234_">
				<g style="filter:url(#Adobe_OpacityMaskFilter_00000108997245958849500980000009360292924523010973_);">
					<polygon id="path-3_00000101080897506968441510000017982420949106420384_" class="st1" points="0,43.6 118,43.6 118,0 0,0 
											"/>
				</g>
			</mask>
			<path id="Fill-4" class="st4" d="M29.3,37.2h6.1V12.5h-6.1C29.3,12.5,29.3,37.2,29.3,37.2z M32.3,0c2.3,0,4.1,1.7,4.1,3.9
				c0,2.1-1.8,3.8-4.1,3.8c-2.2,0-4-1.7-4-3.8C28.3,1.7,30.1,0,32.3,0L32.3,0z"/>
			<defs>
				
					<filter id="Adobe_OpacityMaskFilter_00000015354860526369840290000005746118572762776500_" filterUnits="userSpaceOnUse" x="41.2" y="0" width="22.6" height="37.2">
					<feColorMatrix  type="matrix" values="1 0 0 0 0  0 1 0 0 0  0 0 1 0 0  0 0 0 1 0"/>
				</filter>
			</defs>
			
				<mask maskUnits="userSpaceOnUse" x="41.2" y="0" width="22.6" height="37.2" id="mask-4_00000060743462962943423160000007479627806103852714_">
				<g style="filter:url(#Adobe_OpacityMaskFilter_00000015354860526369840290000005746118572762776500_);">
					<polygon id="path-3_00000035494857063730894740000003300779877054330021_" class="st1" points="0,43.6 118,43.6 118,0 0,0 
											"/>
				</g>
			</mask>
			<polygon id="Fill-6" class="st6" points="41.2,37.2 41.2,0 47.1,0 47.1,23.4 56.5,12.4 63.8,12.4 53.3,24.8 63.8,37.2 56.5,37.2 
				47.1,26.3 47.1,37.2 			"/>
			<defs>
				
					<filter id="Adobe_OpacityMaskFilter_00000041978402104721702700000007855696385115980702_" filterUnits="userSpaceOnUse" x="62.2" y="11.3" width="27.5" height="26.7">
					<feColorMatrix  type="matrix" values="1 0 0 0 0  0 1 0 0 0  0 0 1 0 0  0 0 0 1 0"/>
				</filter>
			</defs>
			
				<mask maskUnits="userSpaceOnUse" x="62.2" y="11.3" width="27.5" height="26.7" id="mask-4_00000164486633327727347490000009890868249619386026_">
				<g style="filter:url(#Adobe_OpacityMaskFilter_00000041978402104721702700000007855696385115980702_);">
					<polygon id="path-3_00000048470633296723436100000002943125601666994347_" class="st1" points="0,43.6 118,43.6 118,0 0,0 
											"/>
				</g>
			</mask>
			<path id="Fill-7" class="st8" d="M75.9,32.7c4.6,0,7.7-3.7,7.7-8.1s-3.1-8.1-7.7-8.1s-7.6,3.7-7.6,8.1S71.3,32.7,75.9,32.7
				 M75.9,11.3c8.3,0,13.8,6.1,13.8,13.3S84.2,38,75.9,38s-13.7-6.1-13.7-13.3S67.7,11.3,75.9,11.3"/>
			<defs>
				
					<filter id="Adobe_OpacityMaskFilter_00000132800438979943021580000001466533274765682843_" filterUnits="userSpaceOnUse" x="92.9" y="11.3" width="23.4" height="25.9">
					<feColorMatrix  type="matrix" values="1 0 0 0 0  0 1 0 0 0  0 0 1 0 0  0 0 0 1 0"/>
				</filter>
			</defs>
			
				<mask maskUnits="userSpaceOnUse" x="92.9" y="11.3" width="23.4" height="25.9" id="mask-4_00000136386486546233804330000003607485404836924596_">
				<g style="filter:url(#Adobe_OpacityMaskFilter_00000132800438979943021580000001466533274765682843_);">
					<polygon id="path-3_00000134970620580312997420000015622469432718153877_" class="st1" points="0,43.6 118,43.6 118,0 0,0 
											"/>
				</g>
			</mask>
			<path id="Fill-8" class="st10" d="M92.9,37.2V12h5.9v3.5c1.6-2.8,4.5-4.2,8.3-4.2c3.7,0,6.1,1.3,7.6,3.4c1.3,1.9,1.6,4,1.6,7.5
				v15h-5.9v-13c0-4.3-1.3-7.6-5.5-7.6c-4.1,0-6.1,3.3-6.1,7.6v13H92.9z"/>
			<defs>
				
					<filter id="Adobe_OpacityMaskFilter_00000090286220963306946640000009280119393222981273_" filterUnits="userSpaceOnUse" x="0.8" y="41.2" width="52.5" height="2.4">
					<feColorMatrix  type="matrix" values="1 0 0 0 0  0 1 0 0 0  0 0 1 0 0  0 0 0 1 0"/>
				</filter>
			</defs>
			
				<mask maskUnits="userSpaceOnUse" x="0.8" y="41.2" width="52.5" height="2.4" id="mask-4_00000066501845059691633040000000609007528640107152_">
				<g style="filter:url(#Adobe_OpacityMaskFilter_00000090286220963306946640000009280119393222981273_);">
					<polygon id="path-3_00000102512076610058730700000012531645681624646796_" class="st1" points="0,43.6 118,43.6 118,0 0,0 
											"/>
				</g>
			</mask>
			<polygon id="Fill-9" class="st12" points="52.1,41.2 0.8,41.2 0.8,43.6 53.3,43.6 			"/>
			<defs>
				
					<filter id="Adobe_OpacityMaskFilter_00000158751265298402173370000013242399523452491426_" filterUnits="userSpaceOnUse" x="54.2" y="41.2" width="63.8" height="2.4">
					<feColorMatrix  type="matrix" values="1 0 0 0 0  0 1 0 0 0  0 0 1 0 0  0 0 0 1 0"/>
				</filter>
			</defs>
			
				<mask maskUnits="userSpaceOnUse" x="54.2" y="41.2" width="63.8" height="2.4" id="mask-4_00000160184946109667772260000008908399486560354448_">
				<g style="filter:url(#Adobe_OpacityMaskFilter_00000158751265298402173370000013242399523452491426_);">
					<polygon id="path-3_00000000928907656892692710000015360775687555077021_" class="st1" points="0,43.6 118,43.6 118,0 0,0 
											"/>
				</g>
			</mask>
			<polygon id="Fill-10" class="st14" points="54.2,41.2 55.4,43.6 118,43.6 118,41.2 			"/>
		</g>
	</g>
</g>
</svg>
