<?xml version="1.0" encoding="UTF-8"?>
<svg width="68px" height="67px" viewBox="0 0 68 67" version="1.1" xmlns="http://www.w3.org/2000/svg" xmlns:xlink="http://www.w3.org/1999/xlink">
    <title>etat_de_fribourg copie</title>
    <g id="Page-1" stroke="none" stroke-width="1" fill="none" fill-rule="evenodd">
        <g id="maquette-v1" transform="translate(-1001.000000, -6595.000000)" fill="#E7E7E7" fill-rule="nonzero">
            <g id="footer" transform="translate(-5.000000, 6386.000000)">
                <g id="logos" transform="translate(372.000000, 209.000000)">
                    <g id="etat_de_fribourg-copie" transform="translate(634.000000, 0.000000)">
                        <path d="M0,32.1158908 L0,33.5 C4.14638251,32.4849866 8.57547291,29.99359 11.025608,27.7790152 C12.6276195,26.302632 14.0411589,24.549427 15.1719905,22.5194001 C15.1719905,22.5194001 15.2662265,22.4271262 15.2662265,22.3348522 C16.3028221,20.4893733 17.0567099,18.2747985 17.6221257,15.691128 C19.1299011,8.58603394 16.8682379,1.48093991 16.3970581,0.558200428 C15.8316423,-0.0877172102 15.0777546,0.00455673819 14.5123388,0.00455673819 C14.4181028,0.00455673819 14.2296309,0.00455673819 14.1353949,0.00455673819 L0,0.00455673819 L0,16.2447717 L10.8371361,16.2447717 C10.9313721,16.2447717 11.119844,16.2447717 11.119844,16.2447717 C11.4967879,16.3370456 11.7794958,16.5215935 11.7794958,16.8906893 C11.7794958,16.9829632 11.7794958,17.0752372 11.7794958,17.1675111 C11.7794958,20.3970993 10.1774843,26.7640018 0.848123695,30.8240555 L0,31.1931513 C0,31.1931513 0,32.1158908 0,32.1158908 Z" id="Path"></path>
                        <g id="Group" transform="translate(1.813333, 40.743243)">
                            <polygon id="Path" points="0.359222071 0.0927800592 3.86163727 0.0927800592 3.86163727 0.649460414 1.07766621 0.649460414 1.07766621 2.31950148 3.68202623 2.31950148 3.68202623 2.87618184 1.07766621 2.87618184 1.07766621 4.63900296 3.86163727 4.63900296 3.86163727 5.19568332 0.359222071 5.19568332"></polygon>
                            <polygon id="Path" points="5.92716418 0.649460414 4.31066486 0.649460414 4.31066486 0.0927800592 8.35191316 0.0927800592 8.35191316 0.649460414 6.64560832 0.649460414 6.64560832 5.28846338 5.92716418 5.28846338"></polygon>
                            <path d="M9.69899593,0.0927800592 L10.4174401,0.0927800592 L12.3931615,5.28846338 L11.6747173,5.28846338 L11.1358842,3.71120237 L8.98055179,3.71120237 L8.44171868,5.28846338 L7.72327454,5.28846338 L9.69899593,0.0927800592 Z M9.16016282,3.15452201 L10.8664677,3.15452201 L10.058218,0.742240474 L10.058218,0.742240474 L9.16016282,3.15452201 Z" id="Shape"></path>
                            <polygon id="Path" points="13.5606332 0.649460414 11.8543284 0.649460414 11.8543284 0.0927800592 15.8955767 0.0927800592 15.8955767 0.649460414 14.1892718 0.649460414 14.1892718 5.28846338 13.5606332 5.28846338"></polygon>
                            <path d="M18.6795477,0.0927800592 L20.3858526,0.0927800592 C21.9125464,0.0927800592 22.8106015,0.927800592 22.8106015,2.59784166 C22.8106015,4.36066278 22.0921574,5.28846338 20.3858526,5.28846338 L18.6795477,5.28846338 L18.6795477,0.0927800592 Z M19.3081863,4.73178302 L20.3858526,4.73178302 C20.8348801,4.73178302 22.0921574,4.63900296 22.0921574,2.69062172 C22.0921574,1.48448095 21.6431298,0.742240474 20.3858526,0.742240474 L19.2183808,0.742240474 L19.3081863,4.73178302 L19.3081863,4.73178302 Z" id="Shape"></path>
                            <path d="M23.7086567,0.0927800592 L27.2110719,0.0927800592 L27.2110719,0.649460414 L24.4271009,0.649460414 L24.4271009,2.31950148 L27.0314609,2.31950148 L27.0314609,2.87618184 L24.4271009,2.87618184 L24.4271009,4.63900296 L27.2110719,4.63900296 L27.2110719,5.19568332 L23.7086567,5.19568332 C23.7086567,5.19568332 23.7086567,0.0927800592 23.7086567,0.0927800592 Z" id="Path"></path>
                            <polygon id="Path" points="30.2644595 0.0927800592 33.5872637 0.0927800592 33.5872637 0.649460414 30.9829037 0.649460414 30.9829037 2.31950148 33.3178471 2.31950148 33.3178471 2.87618184 30.9829037 2.87618184 30.9829037 5.28846338 30.354265 5.28846338"></polygon>
                            <path d="M34.3955133,0.0927800592 L36.7304568,0.0927800592 C37.628512,0.0927800592 38.2571506,0.649460414 38.2571506,1.48448095 C38.2571506,2.13394136 37.9877341,2.59784166 37.3590954,2.78340178 L37.3590954,2.78340178 C37.9877341,2.87618184 38.0775396,3.34008213 38.0775396,3.89676249 C38.0775396,4.36066278 38.0775396,5.0101232 38.3469561,5.28846338 L37.628512,5.28846338 C37.4489009,5.10290326 37.5387065,4.5462229 37.4489009,3.98954255 C37.3590954,3.52564225 37.2692899,3.06174195 36.6406513,3.06174195 L35.1139575,3.06174195 L35.1139575,5.28846338 L34.4853189,5.28846338 L34.3955133,0.0927800592 L34.3955133,0.0927800592 Z M36.4610403,2.5050616 C37.0896789,2.5050616 37.628512,2.31950148 37.628512,1.57726101 C37.628512,1.11336071 37.3590954,0.649460414 36.7304568,0.649460414 L35.1139575,0.649460414 L35.1139575,2.41228154 L36.4610403,2.5050616 L36.4610403,2.5050616 Z" id="Shape"></path>
                            <polygon id="Path" points="39.4246223 0.0927800592 40.053261 0.0927800592 40.053261 5.28846338 39.4246223 5.28846338"></polygon>
                            <path d="M41.3105382,0.0927800592 L43.1066486,0.0927800592 C43.5556762,0.0927800592 44.0945093,0.0927800592 44.4537313,0.278340178 C44.8129534,0.463900296 45.08237,0.835020533 45.08237,1.39170089 C45.08237,1.94838124 44.8129534,2.31950148 44.3639258,2.59784166 L44.3639258,2.59784166 C44.9925645,2.69062172 45.3517865,3.24730207 45.3517865,3.80398243 C45.3517865,4.5462229 44.8129534,5.28846338 43.8250927,5.28846338 L41.4003437,5.28846338 L41.3105382,0.0927800592 L41.3105382,0.0927800592 Z M42.0289824,2.31950148 L43.3760651,2.31950148 C44.0945093,2.31950148 44.4537313,2.0411613 44.4537313,1.48448095 C44.4537313,0.742240474 44.0047038,0.649460414 43.3760651,0.649460414 L42.0289824,0.649460414 L42.0289824,2.31950148 Z M42.0289824,4.73178302 L43.7352872,4.73178302 C44.2741203,4.73178302 44.6333424,4.36066278 44.6333424,3.80398243 C44.6333424,3.15452201 44.0945093,2.96896189 43.5556762,2.96896189 L42.0289824,2.96896189 L42.0289824,4.73178302 L42.0289824,4.73178302 Z" id="Shape"></path>
                            <path d="M48.4051741,0 C50.0216735,0 50.8299231,1.29892083 50.8299231,2.69062172 C50.8299231,4.08232261 50.0216735,5.38124343 48.4051741,5.38124343 C46.7886748,5.38124343 45.9804251,4.08232261 45.9804251,2.69062172 C45.9804251,1.29892083 46.7886748,0 48.4051741,0 Z M48.4051741,4.82456308 C49.6624514,4.82456308 50.111479,3.71120237 50.111479,2.69062172 C50.111479,1.67004107 49.5726459,0.556680355 48.4051741,0.556680355 C47.1478969,0.556680355 46.6988693,1.67004107 46.6988693,2.69062172 C46.6988693,3.71120237 47.1478969,4.82456308 48.4051741,4.82456308 Z" id="Shape"></path>
                            <path d="M55.7692266,3.43286219 C55.7692266,4.73178302 55.0507825,5.47402349 53.7935052,5.47402349 C52.536228,5.47402349 51.7279783,4.82456308 51.7279783,3.43286219 L51.7279783,0.0927800592 L52.3566169,0.0927800592 L52.3566169,3.43286219 C52.3566169,4.36066278 52.89545,4.82456308 53.7036997,4.82456308 C54.5119493,4.82456308 55.0507825,4.36066278 55.0507825,3.43286219 L55.0507825,0.0927800592 L55.7692266,0.0927800592 L55.7692266,3.43286219 Z" id="Path"></path>
                            <path d="M56.9366983,0.0927800592 L59.3614473,0.0927800592 C60.2595025,0.0927800592 60.8881411,0.649460414 60.8881411,1.48448095 C60.8881411,2.13394136 60.6187246,2.59784166 59.9900859,2.78340178 L59.9900859,2.78340178 C60.6187246,2.87618184 60.7085301,3.34008213 60.7085301,3.89676249 C60.7085301,4.36066278 60.7085301,5.0101232 60.9779466,5.28846338 L60.2595025,5.28846338 C60.0798915,5.10290326 60.169697,4.5462229 60.0798915,3.98954255 C59.9900859,3.52564225 59.9002804,3.06174195 59.2716418,3.06174195 L57.6551425,3.06174195 L57.6551425,5.28846338 L57.0265038,5.28846338 L56.9366983,0.0927800592 L56.9366983,0.0927800592 Z M59.0022252,2.5050616 C59.6308639,2.5050616 60.169697,2.31950148 60.169697,1.57726101 C60.169697,1.11336071 59.9002804,0.649460414 59.2716418,0.649460414 L57.6551425,0.649460414 L57.6551425,2.41228154 L59.0022252,2.5050616 L59.0022252,2.5050616 Z" id="Shape"></path>
                            <path d="M65.6478336,4.63900296 C65.2886115,5.19568332 64.6599729,5.38124343 64.0313342,5.38124343 C62.5046404,5.38124343 61.6065853,4.08232261 61.6065853,2.78340178 C61.6065853,1.29892083 62.4148349,0 64.0313342,0 C65.1090005,0 66.0070556,0.463900296 66.1866667,1.76282113 L65.558028,1.76282113 C65.4682225,1.02058065 64.8395839,0.649460414 64.0313342,0.649460414 C62.774057,0.649460414 62.3250294,1.76282113 62.3250294,2.87618184 C62.3250294,3.98954255 62.953668,4.91734314 64.0313342,4.91734314 C65.1090005,4.91734314 65.6478336,4.17510266 65.6478336,3.24730207 L64.0313342,3.24730207 L64.0313342,2.69062172 L66.1866667,2.69062172 L66.1866667,5.38124343 L65.7376391,5.38124343 L65.6478336,4.63900296 Z" id="Path"></path>
                            <path d="M3.23299864,11.9686276 C3.14319313,11.2263872 2.69416554,10.948047 1.97572139,10.948047 C1.43688829,10.948047 0.808249661,11.1336071 0.808249661,11.8758476 C0.808249661,12.525308 1.61649932,12.6180881 2.42474898,12.8036482 C3.23299864,12.9892083 4.0412483,13.2675485 4.0412483,14.2881291 C4.0412483,15.4014898 2.96358209,15.8653901 2.06552691,15.8653901 C0.898055179,15.8653901 0,15.3087098 0,14.0097889 L0.628638625,14.0097889 C0.628638625,14.8448095 1.34708277,15.2159297 2.06552691,15.2159297 C2.69416554,15.2159297 3.32280416,15.0303696 3.32280416,14.2881291 C3.32280416,13.5458886 2.5145545,13.4531086 1.70630484,13.2675485 C0.898055179,13.0819883 0.0898055179,12.8036482 0.0898055179,11.8758476 C0.0898055179,10.8552669 0.987860697,10.3913666 1.88591588,10.3913666 C2.87377657,10.3913666 3.68202623,10.8552669 3.77183175,12.0614077 L3.23299864,12.0614077 L3.23299864,11.9686276 Z" id="Path"></path>
                            <polygon id="Path" points="5.92716418 11.040827 4.22085934 11.040827 4.22085934 10.4841467 8.26210764 10.4841467 8.26210764 11.040827 6.5558028 11.040827 6.5558028 15.67983 5.92716418 15.67983"></polygon>
                            <path d="M9.69899593,10.4841467 L10.4174401,10.4841467 L12.3931615,15.67983 L11.6747173,15.67983 L11.1358842,14.102569 L8.98055179,14.102569 L8.44171868,15.67983 L7.72327454,15.67983 L9.69899593,10.4841467 Z M9.16016282,13.5458886 L10.8664677,13.5458886 L10.058218,11.1336071 L10.058218,11.1336071 L9.16016282,13.5458886 Z" id="Shape"></path>
                            <path d="M14.3688829,10.4841467 L15.087327,10.4841467 L17.0630484,15.67983 L16.3446043,15.67983 L15.8057711,14.102569 L13.6504387,14.102569 L13.1116056,15.67983 L12.3931615,15.67983 L14.3688829,10.4841467 Z M13.8300498,13.5458886 L15.5363546,13.5458886 L14.7281049,11.1336071 L14.7281049,11.1336071 L13.8300498,13.5458886 Z" id="Shape"></path>
                            <polygon id="Path" points="18.2305201 11.040827 16.5242153 11.040827 16.5242153 10.4841467 20.5654636 10.4841467 20.5654636 11.040827 18.8591588 11.040827 18.8591588 15.67983 18.2305201 15.67983 18.2305201 11.040827"></polygon>
                            <polygon id="Path" points="23.3494346 10.4841467 26.6722388 10.4841467 26.6722388 11.040827 24.0678788 11.040827 24.0678788 12.7108681 26.4028223 12.7108681 26.4028223 13.2675485 24.0678788 13.2675485 24.0678788 15.67983 23.4392402 15.67983 23.4392402 10.4841467"></polygon>
                            <path d="M27.4804885,10.4841467 L29.8154319,10.4841467 C30.7134871,10.4841467 31.3421257,11.040827 31.3421257,11.8758476 C31.3421257,12.525308 31.0727092,12.9892083 30.4440706,13.1747684 L30.4440706,13.1747684 C30.9829037,13.2675485 31.1625147,13.7314488 31.1625147,14.2881291 C31.1625147,14.7520294 31.1625147,15.4014898 31.4319313,15.67983 L30.7134871,15.67983 C30.5338761,15.4942699 30.6236816,14.9375895 30.5338761,14.3809092 C30.4440706,13.9170089 30.354265,13.4531086 29.7256264,13.4531086 L28.1091271,13.4531086 L28.1091271,15.67983 L27.4804885,15.67983 C27.4804885,15.67983 27.4804885,10.4841467 27.4804885,10.4841467 Z M29.5460154,12.8964282 C30.174654,12.8964282 30.7134871,12.7108681 30.7134871,11.9686276 C30.7134871,11.5047273 30.4440706,11.040827 29.8154319,11.040827 L28.1989326,11.040827 L28.1989326,12.8036482 L29.5460154,12.8964282 L29.5460154,12.8964282 Z" id="Shape"></path>
                            <polygon id="Path" points="32.4197919 10.4841467 35.9222071 10.4841467 35.9222071 11.040827 33.1382361 11.040827 33.1382361 12.7108681 35.7425961 12.7108681 35.7425961 13.2675485 33.1382361 13.2675485 33.1382361 15.0303696 35.9222071 15.0303696 35.9222071 15.5870499 32.4197919 15.5870499"></polygon>
                            <polygon id="Path" points="36.9100678 10.4841467 37.5387065 10.4841467 37.5387065 15.67983 36.9100678 15.67983"></polygon>
                            <path d="M38.7959837,10.4841467 L40.5920941,10.4841467 C41.0411217,10.4841467 41.5799548,10.4841467 41.9391768,10.6697068 C42.2983989,10.8552669 42.5678155,11.2263872 42.5678155,11.7830675 C42.5678155,12.3397479 42.2983989,12.7108681 41.8493713,12.9892083 L41.8493713,12.9892083 C42.47801,13.0819883 42.837232,13.6386687 42.837232,14.1953491 C42.837232,14.9375895 42.2983989,15.67983 41.3105382,15.67983 L38.8857892,15.67983 L38.7959837,10.4841467 L38.7959837,10.4841467 Z M39.5144279,12.7108681 L40.8615106,12.7108681 C41.5799548,12.7108681 41.9391768,12.4325279 41.9391768,11.8758476 C41.9391768,11.1336071 41.4901493,11.040827 40.8615106,11.040827 L39.5144279,11.040827 L39.5144279,12.7108681 Z M39.5144279,15.1231497 L41.2207327,15.1231497 C41.7595658,15.1231497 42.1187879,14.7520294 42.1187879,14.1953491 C42.1187879,13.5458886 41.5799548,13.3603285 41.0411217,13.3603285 L39.5144279,13.3603285 L39.5144279,15.1231497 L39.5144279,15.1231497 Z" id="Shape"></path>
                            <path d="M47.7765355,13.8242288 C47.7765355,15.1231497 47.0580914,15.8653901 45.8008141,15.8653901 C44.5435369,15.8653901 43.7352872,15.2159297 43.7352872,13.8242288 L43.7352872,10.4841467 L44.3639258,10.4841467 L44.3639258,13.8242288 C44.3639258,14.7520294 44.9027589,15.2159297 45.7110086,15.2159297 C46.5192583,15.2159297 47.0580914,14.7520294 47.0580914,13.8242288 L47.0580914,10.4841467 L47.68673,10.4841467 L47.7765355,13.8242288 L47.7765355,13.8242288 Z" id="Path"></path>
                            <path d="M48.9440072,10.4841467 L51.2789507,10.4841467 C52.1770059,10.4841467 52.8056445,11.040827 52.8056445,11.8758476 C52.8056445,12.525308 52.536228,12.9892083 51.9075893,13.1747684 L51.9075893,13.1747684 C52.4464224,13.2675485 52.6260335,13.7314488 52.6260335,14.2881291 C52.6260335,14.7520294 52.6260335,15.4014898 52.89545,15.67983 L52.1770059,15.67983 C51.9973948,15.4942699 52.0872004,14.9375895 51.9973948,14.3809092 C51.9075893,13.9170089 51.8177838,13.4531086 51.1891452,13.4531086 L49.5726459,13.4531086 L49.5726459,15.67983 L48.9440072,15.67983 C48.9440072,15.67983 48.9440072,10.4841467 48.9440072,10.4841467 Z M51.0095341,12.8964282 C51.6381728,12.8964282 52.1770059,12.7108681 52.1770059,11.9686276 C52.1770059,11.5047273 51.9075893,11.040827 51.2789507,11.040827 L49.6624514,11.040827 L49.6624514,12.8036482 L51.0095341,12.8964282 L51.0095341,12.8964282 Z" id="Shape"></path>
                            <path d="M57.6551425,15.0303696 C57.2959204,15.5870499 56.6672818,15.7726101 56.0386431,15.7726101 C54.5119493,15.7726101 53.6138942,14.4736892 53.6138942,13.1747684 C53.6138942,11.6902875 54.4221438,10.3913666 56.0386431,10.3913666 C57.1163094,10.3913666 58.0143645,10.8552669 58.1939756,12.1541878 L57.565337,12.1541878 C57.4755314,11.4119473 56.8468928,11.040827 56.0386431,11.040827 C54.7813659,11.040827 54.3323383,12.1541878 54.3323383,13.2675485 C54.3323383,14.3809092 54.9609769,15.3087098 56.0386431,15.3087098 C57.1163094,15.3087098 57.6551425,14.5664693 57.6551425,13.6386687 L56.0386431,13.6386687 L56.0386431,13.0819883 L58.1939756,13.0819883 L58.1939756,15.7726101 L57.744948,15.7726101 L57.6551425,15.0303696 Z" id="Path"></path>
                            <polygon id="Path" points="3.5024152 26.0711966 3.05338761 26.0711966 2.24513795 23.1022347 2.24513795 23.1022347 1.43688829 26.0711966 0.987860697 26.0711966 0.0898055179 22.5455544 0.538833107 22.5455544 1.25727725 25.4217362 1.25727725 25.4217362 2.06552691 22.4527743 2.60436002 22.4527743 3.23299864 25.4217362 3.23299864 25.4217362 3.95144279 22.4527743 4.40047038 22.4527743"></polygon>
                            <polygon id="Path" points="8.08249661 26.0711966 7.63346902 26.0711966 6.82521936 23.1022347 6.82521936 23.1022347 6.0169697 26.0711966 5.56794211 26.0711966 4.66988693 22.5455544 5.11891452 22.5455544 5.83735866 25.4217362 5.83735866 25.4217362 6.64560832 22.4527743 7.18444143 22.4527743 7.81308005 25.4217362 7.81308005 25.4217362 8.5315242 22.4527743 8.98055179 22.4527743"></polygon>
                            <polygon id="Path" points="12.662578 26.0711966 12.2135504 26.0711966 11.4053008 23.1022347 11.4053008 23.1022347 10.5970511 26.0711966 10.1480235 26.0711966 9.24996834 22.5455544 9.69899593 22.5455544 10.4174401 25.5145163 10.4174401 25.5145163 11.2256897 22.5455544 11.7645228 22.5455544 12.482967 25.5145163 12.482967 25.5145163 13.2014111 22.5455544 13.5606332 22.5455544"></polygon>
                            <polygon id="Path" points="13.7402442 25.5145163 14.2790773 25.5145163 14.2790773 26.0711966 13.7402442 26.0711966"></polygon>
                            <polygon id="Path" points="15.1771325 22.4527743 17.4222705 22.4527743 17.4222705 22.8238946 15.6261601 22.8238946 15.6261601 23.9372553 17.2426594 23.9372553 17.2426594 24.3083755 15.6261601 24.3083755 15.6261601 25.9784166 15.1771325 25.9784166"></polygon>
                            <path d="M18.0509091,22.4527743 L19.6674084,22.4527743 C20.296047,22.4527743 20.7450746,22.8238946 20.7450746,23.3805749 C20.7450746,23.8444752 20.5654636,24.1228154 20.116436,24.3083755 L20.116436,24.3083755 C20.4756581,24.4011556 20.5654636,24.6794958 20.6552691,25.050616 C20.6552691,25.4217362 20.6552691,25.7928565 20.8348801,26.0711966 L20.296047,26.0711966 C20.2062415,25.8856365 20.2062415,25.5145163 20.2062415,25.2361761 C20.116436,24.8650559 20.116436,24.5867157 19.6674084,24.5867157 L18.5897422,24.5867157 L18.5897422,26.0711966 L18.0509091,26.0711966 L18.0509091,22.4527743 Z M19.4877974,24.1228154 C19.936825,24.1228154 20.296047,24.0300353 20.296047,23.473355 C20.296047,23.1022347 20.116436,22.8238946 19.6674084,22.8238946 L18.4999367,22.8238946 L18.4999367,24.0300353 L19.4877974,24.1228154 L19.4877974,24.1228154 Z" id="Shape"></path>
                            <polygon id="Path" points="21.4635188 25.5145163 22.0023519 25.5145163 22.0023519 26.0711966 21.4635188 26.0711966"></polygon>
                            <path d="M25.325156,23.566135 C25.2353505,23.1022347 24.8761284,22.8238946 24.3372953,22.8238946 C23.5290457,22.8238946 23.1698236,23.566135 23.1698236,24.3083755 C23.1698236,25.143396 23.5290457,25.7928565 24.3372953,25.7928565 C24.965934,25.7928565 25.325156,25.3289562 25.325156,24.7722758 L25.7741836,24.7722758 C25.6843781,25.7000764 25.145545,26.1639767 24.2474898,26.1639767 C23.1698236,26.1639767 22.6309905,25.3289562 22.6309905,24.3083755 C22.6309905,23.2877949 23.1698236,22.4527743 24.2474898,22.4527743 C24.965934,22.4527743 25.5945726,22.8238946 25.6843781,23.566135 C25.6843781,23.566135 25.325156,23.566135 25.325156,23.566135 Z" id="Path"></path>
                            <path d="M26.4926278,22.4527743 L26.9416554,22.4527743 L26.9416554,23.9372553 L28.7377657,23.9372553 L28.7377657,22.4527743 L29.1867933,22.4527743 L29.1867933,25.9784166 L28.7377657,25.9784166 L28.7377657,24.3083755 L26.9416554,24.3083755 L26.9416554,25.9784166 L26.4926278,25.9784166 C26.4926278,25.9784166 26.4926278,22.4527743 26.4926278,22.4527743 Z" id="Path"></path>
                        </g>
                    </g>
                </g>
            </g>
        </g>
    </g>
</svg>