<?xml version="1.0" encoding="UTF-8"?>
<svg width="109px" height="39px" viewBox="0 0 109 39" version="1.1" xmlns="http://www.w3.org/2000/svg" xmlns:xlink="http://www.w3.org/1999/xlink">
    <title>fri-son copie</title>
    <g id="Page-1" stroke="none" stroke-width="1" fill="none" fill-rule="evenodd">
        <g id="maquette-v1" transform="translate(-583.000000, -6623.000000)" fill="#E7E7E7" fill-rule="nonzero">
            <g id="footer" transform="translate(-5.000000, 6386.000000)">
                <g id="logos" transform="translate(372.000000, 209.000000)">
                    <g id="fri-son-copie" transform="translate(216.000000, 28.000000)">
                        <g id="Group">
                            <path d="M74.0634049,15.21 C69.0024963,15.21 64.7578632,18.5528571 63.125312,23.1771429 C62.3090364,20.7814286 60.7309036,18.6642857 58.6630055,17.2714286 C56.9760359,16.1014286 55.8876685,14.1514286 55.8876685,11.9228571 C55.8876685,8.41285714 58.7174239,5.57142857 62.1457813,5.57142857 L62.1457813,0.0557142857 C55.7244134,0.0557142857 50.5002496,5.34857143 50.5002496,11.9228571 C50.5002496,16.0457143 52.5137294,19.6671429 55.6155766,21.7842857 L55.6155766,21.7842857 C57.3025462,22.9542857 58.3909136,24.9042857 58.3909136,27.1328571 C58.3909136,30.6428571 55.5611583,33.4842857 52.1328008,33.4842857 C48.7044433,33.4842857 45.9291063,30.6428571 45.9291063,27.1328571 L40.5416875,27.1328571 C40.5416875,33.6514286 45.7658512,39 52.1328008,39 C57.1937094,39 61.4927609,35.7128571 63.125312,31.0885714 C64.7034448,35.6571429 69.0024963,39 74.0634049,39 C80.4847728,39 85.7089366,33.7071429 85.7089366,27.1328571 C85.7089366,20.5585714 80.4847728,15.21 74.0634049,15.21 M74.0634049,33.4842857 C70.6350474,33.4842857 67.8597104,30.6428571 67.8597104,27.1328571 C67.8597104,23.6228571 70.6350474,20.7257143 74.0634049,20.7257143 C77.4917624,20.7257143 80.3215177,23.6228571 80.3215177,27.1328571 C80.3215177,30.6428571 77.4917624,33.4842857 74.0634049,33.4842857" id="Shape"></path>
                            <path d="M103.558163,38.4428571 L109,38.4428571 L109,27.1328571 C109,20.5585714 103.721418,15.21 97.3544683,15.21 C90.9331003,15.21 85.7089366,20.5585714 85.7089366,27.1328571 L85.7089366,38.4985714 L91.0963555,38.4985714 L91.0963555,27.1328571 C91.0963555,23.6228571 93.9261108,20.7257143 97.3544683,20.7257143 C100.782826,20.7257143 103.558163,23.6228571 103.558163,27.1328571 L103.558163,38.4428571 L103.558163,38.4428571 Z" id="Path"></path>
                            <path d="M31.3994009,14.7085714 L31.3994009,14.7085714 C27.8077883,14.7085714 24.6515227,16.38 22.4747878,18.9985714 C20.3524713,16.38 17.1417873,14.7085714 13.5501747,14.7085714 L12.0808787,14.7085714 L12.0808787,11.8671429 C12.0808787,8.35714286 14.910634,5.51571429 18.3389915,5.51571429 L18.3389915,0 C12.0264603,0 6.74787818,5.29285714 6.74787818,11.8671429 L6.74787818,14.7085714 L0,14.7085714 L0,20.2242857 L6.74787818,20.2242857 L6.74787818,38.5542857 L12.1352971,38.5542857 L12.1352971,20.2242857 L13.6045931,20.2242857 C17.0329506,20.2242857 19.8082876,23.0657143 19.8082876,26.5757143 L19.8082876,38.4985714 L25.1957064,38.4985714 L25.1957064,26.5757143 C25.1957064,23.0657143 27.9710434,20.2242857 31.3994009,20.2242857 L32.868697,20.2242857 L32.868697,38.4985714 L38.2561158,38.4985714 L38.2561158,14.7085714 L31.3994009,14.7085714 Z" id="Path"></path>
                            <polygon id="Path" points="49.0853719 14.7085714 40.5416875 20.2242857 40.5416875 25.8514286 49.0853719 20.4471429"></polygon>
                        </g>
                        <rect id="Rectangle" x="32.4297521" y="0" width="5.40495868" height="12.6976744"></rect>
                    </g>
                </g>
            </g>
        </g>
    </g>
</svg>