<?xml version="1.0" encoding="UTF-8"?>
<svg width="109px" height="39px" viewBox="0 0 109 39" version="1.1" xmlns="http://www.w3.org/2000/svg" xmlns:xlink="http://www.w3.org/1999/xlink">
    <title>loterie_romande_black copie</title>
    <g id="Page-1" stroke="none" stroke-width="1" fill="none" fill-rule="evenodd">
        <g id="maquette-v1" transform="translate(-367.000000, -6623.000000)" fill="#E7E7E7" fill-rule="nonzero">
            <g id="footer" transform="translate(-5.000000, 6386.000000)">
                <g id="logos" transform="translate(372.000000, 209.000000)">
                    <g id="loterie_romande_black-copie" transform="translate(0.000000, 28.000000)">
                        <path d="M7.97936144,17.7434211 C7.97936144,13.4210526 11.3633798,9.88815789 15.5357206,9.88815789 C19.7080614,9.88815789 23.1113071,13.4210526 23.1113071,17.7434211 C23.1113071,22.0657895 19.7080614,25.5790297 15.5357206,25.5790297 C11.3826072,25.5986842 7.97936144,22.0657895 7.97936144,17.7434211 Z M109,0 L109,39 L0,39 L0,0 L109,0 Z M3.59551949,15.2368421 C3.59551949,22.0263158 8.94073029,27.5328947 15.554948,27.5328947 C22.1691656,27.5328947 27.5143764,22.0263158 27.5143764,15.2368421 C27.5143764,8.42763158 22.1691656,2.92105263 15.554948,2.92105263 C8.94073029,2.92105263 3.59551949,8.42763158 3.59551949,15.2368421 Z M0.826777209,6.31578947 C2.05732933,4.14473684 3.74933851,2.28947368 5.72975833,0.848684211 L0.826777209,0.848684211 L0.826777209,6.31578947 Z M108.173223,0.848684211 L25.3801376,0.848684211 C29.7832069,4.02631579 32.6480861,9.27631579 32.6480861,15.2368421 C32.6480861,24.9473684 24.9955901,32.8223684 15.554948,32.8223684 C9.28682307,32.8223684 3.80702064,29.3486842 0.826777209,24.1578947 L0.826777209,38.1513158 L108.173223,38.1513158 L108.173223,0.848684211 Z M48.4914447,7.875 L51.5101429,7.875 L51.5101429,14.3684211 L54.4711589,14.3684211 L54.4711589,17.0131579 L48.4914447,17.0131579 L48.4914447,7.875 L48.4914447,7.875 Z M55.5671194,12.3947368 C55.5671194,11.6644737 55.7017111,10.9934211 55.951667,10.4013158 C56.2016229,9.80921053 56.5477156,9.31578947 56.9899453,8.90131579 C57.432175,8.48684211 57.9513142,8.17105263 58.5665902,7.95394737 C59.1626389,7.73684211 59.8163697,7.61842105 60.5277827,7.61842105 C61.2391956,7.61842105 61.8929264,7.73684211 62.4889751,7.95394737 C63.0850238,8.17105263 63.6233904,8.50657895 64.06562,8.90131579 C64.5078497,9.31578947 64.8539425,9.80921053 65.1038984,10.4013158 C65.3538543,10.9934211 65.4884459,11.6644737 65.4884459,12.3947368 C65.4884459,13.125 65.3538543,13.7960526 65.1038984,14.4078947 C64.8539425,15.0197368 64.5078497,15.5328947 64.06562,15.9473684 C63.6233904,16.3815789 63.1042512,16.6973684 62.4889751,16.9342105 C61.8929264,17.1710526 61.2199682,17.2894737 60.5277827,17.2894737 C59.8163697,17.2894737 59.1626389,17.1710526 58.5665902,16.9342105 C57.9705415,16.6973684 57.432175,16.3815789 56.9899453,15.9473684 C56.5477156,15.5131579 56.2016229,15 55.951667,14.4078947 C55.7017111,13.7960526 55.5671194,13.125 55.5671194,12.3947368 Z M58.758864,12.3947368 C58.758864,12.6907895 58.7973188,12.9671053 58.8934556,13.2236842 C58.9895925,13.4802632 59.1049568,13.6973684 59.2587758,13.875 C59.4125948,14.0526316 59.6048686,14.1907895 59.8163697,14.2894737 C60.0278709,14.3881579 60.2778268,14.4473684 60.5277827,14.4473684 C60.7777386,14.4473684 61.0084671,14.4078947 61.2199682,14.2894737 C61.4314694,14.1907895 61.6237432,14.0526316 61.7775622,13.875 C61.9313812,13.6973684 62.0659728,13.4802632 62.1428823,13.2236842 C62.2390192,12.9671053 62.277474,12.6907895 62.277474,12.3947368 C62.277474,12.0986842 62.2390192,11.8421053 62.1428823,11.5855263 C62.0467455,11.3486842 61.9313812,11.1315789 61.7775622,10.9736842 C61.6237432,10.8157895 61.4314694,10.6776316 61.2199682,10.5789474 C61.0084671,10.4802632 60.7777386,10.4407895 60.5277827,10.4407895 C60.2778268,10.4407895 60.0470983,10.4802632 59.8163697,10.5789474 C59.6048686,10.6776316 59.4125948,10.8157895 59.2587758,10.9736842 C59.1049568,11.1315789 58.9895925,11.3486842 58.8934556,11.5855263 C58.8165461,11.8421053 58.758864,12.0986842 58.758864,12.3947368 Z M71.6604339,17.0328947 L68.6609631,17.0328947 L68.6609631,10.4605263 L66.4690422,10.4605263 L66.4690422,7.875 L73.8523549,7.875 L73.8523549,10.4605263 L71.6604339,10.4605263 L71.6604339,17.0328947 Z M75.5059093,7.875 L81.6394426,7.875 L81.6394426,10.4407895 L78.3323337,10.4407895 L78.3323337,11.2302632 L81.4471688,11.2302632 L81.4471688,13.6184211 L78.3323337,13.6184211 L78.3323337,14.4671053 L81.8701711,14.4671053 L81.8701711,17.0328947 L75.5251367,17.0328947 L75.5059093,7.875 L75.5059093,7.875 Z M83.8505909,7.875 L87.6960663,7.875 C88.138296,7.875 88.5612983,7.91447368 89.003528,8.01315789 C89.4457576,8.11184211 89.8303052,8.26973684 90.1571706,8.48684211 C90.5032634,8.72368421 90.7724466,9.01973684 90.9839478,9.41447368 C91.1954489,9.78947368 91.2915858,10.2828947 91.2915858,10.8552632 C91.2915858,11.4078947 91.1569942,11.9013158 90.8878109,12.3355263 C90.6186276,12.7697368 90.2340801,13.0855263 89.7341683,13.3223684 L92.0029988,17.0328947 L88.5612983,17.0328947 L86.8500617,13.7565789 L86.7539249,13.7565789 L86.7539249,17.0328947 L83.8505909,17.0328947 L83.8505909,7.875 L83.8505909,7.875 Z M86.7346975,11.7434211 L87.3307462,11.7434211 C87.426883,11.7434211 87.5422473,11.7434211 87.6576116,11.7236842 C87.7729758,11.7039474 87.8883401,11.6644737 88.0037044,11.6052632 C88.0998412,11.5460526 88.1959781,11.4671053 88.2728876,11.3684211 C88.3497971,11.2697368 88.3882519,11.1315789 88.3882519,10.9736842 C88.3882519,10.8157895 88.3497971,10.6776316 88.292115,10.5789474 C88.2344329,10.4802632 88.1575234,10.4210526 88.0613865,10.3618421 C87.9652496,10.3223684 87.8691127,10.2828947 87.7729758,10.2631579 C87.6576116,10.2434211 87.5614747,10.2434211 87.4653378,10.2434211 L86.7539249,10.2434211 L86.7346975,11.7434211 L86.7346975,11.7434211 Z M93.1181866,7.875 L96.1368848,7.875 L96.1368848,17.0328947 L93.1181866,17.0328947 L93.1181866,7.875 Z M98.0403951,7.875 L104.173928,7.875 L104.173928,10.4407895 L100.86682,10.4407895 L100.86682,11.2302632 L103.981655,11.2302632 L103.981655,13.6184211 L100.86682,13.6184211 L100.86682,14.4671053 L104.404657,14.4671053 L104.404657,17.0328947 L98.0596225,17.0328947 L98.0596225,7.875 L98.0403951,7.875 Z M35.1476451,21.2368421 L38.9738931,21.2368421 C39.4161228,21.2368421 39.8391251,21.2763158 40.2813547,21.375 C40.704357,21.4736842 41.0889046,21.6315789 41.4349974,21.8486842 C41.7810901,22.0855263 42.0502734,22.3815789 42.2617746,22.7763158 C42.4732757,23.1513158 42.5694126,23.6447368 42.5694126,24.2171053 C42.5694126,24.7697368 42.434821,25.2631579 42.1656377,25.6973684 C41.8964544,26.1315789 41.5119069,26.4473684 41.0119951,26.6842105 L43.2615982,30.3947368 L39.8198977,30.3947368 L38.1086611,27.1381579 L38.0125243,27.1381579 L38.0125243,30.3947368 L35.1091903,30.3947368 L35.1091903,21.2368421 L35.1476451,21.2368421 Z M38.0317516,25.0855263 L38.6085729,25.0855263 C38.7047098,25.0855263 38.8200741,25.0855263 38.9354383,25.0657895 C39.0508026,25.0460526 39.1661669,25.0065789 39.2623038,24.9473684 C39.3584406,24.8881579 39.4545775,24.8092105 39.531487,24.7105263 C39.6083965,24.6118421 39.6276239,24.4736842 39.6276239,24.3157895 C39.6276239,24.1578947 39.5891692,24.0197368 39.531487,23.9210526 C39.4738049,23.8223684 39.3968954,23.7631579 39.3007585,23.7039474 C39.2046216,23.6644737 39.1084847,23.625 38.9931205,23.6052632 C38.8777562,23.5855263 38.7816193,23.5855263 38.6854824,23.5855263 L37.9740695,23.5855263 L37.9740695,25.0855263 L38.0317516,25.0855263 L38.0317516,25.0855263 Z M43.76151,25.7565789 C43.76151,25.0263158 43.8961016,24.375 44.1460575,23.7828947 C44.3960134,23.1907895 44.7421062,22.6973684 45.1843359,22.2828947 C45.6265655,21.8684211 46.1457047,21.5526316 46.7417534,21.3355263 C47.3378021,21.1184211 48.0107603,21 48.7029458,21 C49.4143588,21 50.0680896,21.1184211 50.6641383,21.3355263 C51.260187,21.5526316 51.7985535,21.8684211 52.2407832,22.2828947 C52.6830129,22.6973684 53.0291057,23.1907895 53.2790616,23.7828947 C53.5290175,24.375 53.6636091,25.0263158 53.6636091,25.7565789 C53.6636091,26.4868421 53.5290175,27.1578947 53.2790616,27.75 C53.0291057,28.3618421 52.6830129,28.875 52.2407832,29.2894737 C51.7985535,29.7236842 51.2794144,30.0394737 50.6641383,30.2763158 C50.0680896,30.5131579 49.4143588,30.6315789 48.7029458,30.6315789 C47.9915329,30.6315789 47.3378021,30.5131579 46.7417534,30.2763158 C46.1457047,30.0394737 45.6265655,29.7236842 45.1843359,29.2894737 C44.7421062,28.8552632 44.3960134,28.3421053 44.1460575,27.75 C43.8768742,27.1578947 43.76151,26.4868421 43.76151,25.7565789 Z M46.9340272,25.7565789 C46.9340272,26.0526316 46.9724819,26.3289474 47.0686188,26.5855263 C47.1647557,26.8421053 47.28012,27.0592105 47.433939,27.2368421 C47.587758,27.4144737 47.7800318,27.5526316 47.9915329,27.6513158 C48.203034,27.75 48.4529899,27.8092105 48.7029458,27.8092105 C48.9529017,27.8092105 49.1836303,27.75 49.3951314,27.6513158 C49.6066326,27.5526316 49.7989063,27.4144737 49.9527253,27.2368421 C50.1065444,27.0592105 50.241136,26.8421053 50.3180455,26.5855263 C50.394955,26.3289474 50.4526371,26.0526316 50.4526371,25.7565789 C50.4526371,25.4605263 50.4141824,25.2039474 50.3180455,24.9473684 C50.2219086,24.7105263 50.1065444,24.4934211 49.9527253,24.3355263 C49.7989063,24.1776316 49.6066326,24.0394737 49.3951314,23.9407895 C49.1836303,23.8421053 48.9529017,23.8026316 48.7029458,23.8026316 C48.4529899,23.8026316 48.2222614,23.8421053 47.9915329,23.9407895 C47.7800318,24.0394737 47.587758,24.1776316 47.433939,24.3355263 C47.28012,24.5131579 47.1647557,24.7105263 47.0686188,24.9473684 C46.9724819,25.1842105 46.9340272,25.4605263 46.9340272,25.7565789 Z M57.5667666,25.2039474 L57.7013583,30.375 L54.9133886,30.375 L54.9133886,21.2368421 L58.8357735,21.2368421 L60.4508732,26.1513158 L60.5085553,26.1513158 L61.9121538,21.2368421 L65.949903,21.2368421 L65.949903,30.375 L63.0273417,30.375 L63.1234786,25.2434211 L63.0465691,25.2236842 L61.3930146,30.375 L59.2780032,30.375 L57.6436761,25.2039474 L57.5667666,25.2039474 L57.5667666,25.2039474 Z M70.5067913,21.2368421 L73.6793085,21.2368421 L77.1402364,30.375 L73.8908097,30.375 L73.4293526,29.0328947 L70.6029282,29.0328947 L70.1606985,30.375 L66.9881813,30.375 L70.5067913,21.2368421 Z M72.0449815,24.4144737 L71.3143412,26.6842105 L72.7563944,26.6842105 L72.0449815,24.4144737 Z M78.2169695,21.2368421 L81.1972129,21.2368421 L83.7352267,25.875 L83.7929088,25.875 L83.6775445,21.2368421 L86.5231963,21.2368421 L86.5231963,30.375 L83.446816,30.375 L80.9857118,26.0131579 L80.9280296,26.0131579 L81.0626213,30.375 L78.2169695,30.375 L78.2169695,21.2368421 L78.2169695,21.2368421 Z M88.1575234,30.375 L88.1575234,21.2368421 L91.4838596,21.2368421 C92.1952725,21.2368421 92.8682307,21.3157895 93.5027342,21.4539474 C94.1372376,21.5921053 94.7140589,21.8486842 95.1947433,22.1842105 C95.6946551,22.5394737 96.0792027,22.9934211 96.3676133,23.5657895 C96.656024,24.1381579 96.809843,24.8684211 96.809843,25.7368421 C96.809843,26.5460526 96.6752514,27.2368421 96.3868407,27.8092105 C96.0984301,28.4013158 95.7331099,28.875 95.2524255,29.25 C94.7909684,29.625 94.2333745,29.9013158 93.6373258,30.0789474 C93.0220497,30.2565789 92.3875463,30.3552632 91.7338155,30.3552632 L88.1575234,30.3552632 L88.1575234,30.375 L88.1575234,30.375 Z M91.0416299,23.8421053 L91.0416299,27.7302632 L91.5992238,27.7302632 C92.3106368,27.7302632 92.8490034,27.5723684 93.2143235,27.2565789 C93.5988711,26.9407895 93.7719174,26.4276316 93.7719174,25.7171053 C93.7719174,25.125 93.5796437,24.6710526 93.2143235,24.3355263 C92.829776,24 92.3298642,23.8421053 91.6953607,23.8421053 L91.0416299,23.8421053 L91.0416299,23.8421053 Z M98.0596225,21.2368421 L104.173928,21.2368421 L104.173928,23.7828947 L100.86682,23.7828947 L100.86682,24.5723684 L103.962427,24.5723684 L103.962427,26.9605263 L100.86682,26.9605263 L100.86682,27.8092105 L104.404657,27.8092105 L104.404657,30.3552632 L98.0596225,30.3552632 L98.0596225,21.2368421 Z" id="Shape"></path>
                    </g>
                </g>
            </g>
        </g>
    </g>
</svg>